HIERARCHY
ROOT Hips
{
	OFFSET 0.000000 0.000000 0.000000
	CHANNELS 6 Xposition Yposition Zposition Zrotation Yrotation Xrotation 
	JOINT LHipJoint
	{
		OFFSET 0.000000 0.000000 0.000000
		CHANNELS 3 Zrotation Yrotation Xrotation
		JOINT LeftUpLeg
		{
			OFFSET 1.363060 -1.794630 0.839290
			CHANNELS 3 Zrotation Yrotation Xrotation
			JOINT LeftLeg
			{
				OFFSET 2.448110 -6.726130 0.000000
				CHANNELS 3 Zrotation Yrotation Xrotation
				JOINT LeftFoot
				{
					OFFSET 2.562200 -7.039590 0.000000
					CHANNELS 3 Zrotation Yrotation Xrotation
					JOINT LeftToeBase
					{
						OFFSET 0.157640 -0.433110 2.322550
						CHANNELS 3 Zrotation Yrotation Xrotation
						End Site
						{
							OFFSET 0.000000 0.000000 0.000000
						}
					}
				}
			}
		}
	}
	JOINT RHipJoint
	{
		OFFSET 0.000000 0.000000 0.000000
		CHANNELS 3 Zrotation Yrotation Xrotation
		JOINT RightUpLeg
		{
			OFFSET -1.305520 -1.794630 0.839290
			CHANNELS 3 Zrotation Yrotation Xrotation
			JOINT RightLeg
			{
				OFFSET -2.542530 -6.985550 0.000000
				CHANNELS 3 Zrotation Yrotation Xrotation
				JOINT RightFoot
				{
					OFFSET -2.568260 -7.056230 0.000000
					CHANNELS 3 Zrotation Yrotation Xrotation
					JOINT RightToeBase
					{
						OFFSET -0.164730 -0.452590 2.363150
						CHANNELS 3 Zrotation Yrotation Xrotation
						End Site
						{
							OFFSET 0.000000 0.000000 0.000000
						}
					}
				}
			}
		}
	}
}
MOTION
Frames: 19
Frame Time: 0.008333
5.666678 17.033882 0.501474 -8.323773 84.673822 16.651912 -10.312611 0.106802 -0.962781 -8.096468 -1.976712 -29.296163 -1.444744 1.245122 36.665749 1.373124 6.185136 -12.374409 -0.615700 -0.000000 -49.715900 9.325993 0.803852 -2.506255 10.734885 -4.380502 -49.019326 1.223940 -4.282971 52.234547 -1.990869 -7.150357 -12.226613 0.270500 -0.000000 -30.259600
5.883257 17.086095 0.536612 -9.616217 84.951490 15.526660 -10.408164 0.186470 -1.044017 -7.790865 -1.419063 -28.345523 -1.454018 1.211373 35.641200 1.218711 5.539486 -11.053017 -0.416800 -0.000000 -51.512700 9.113241 0.846657 -2.139471 10.740969 -3.652925 -49.636174 1.482258 -4.016497 48.969929 -2.091531 -7.342613 -12.156228 0.218300 0.000000 -29.851299
6.099880 17.133663 0.574677 -10.588488 85.262941 14.709097 -10.498065 0.263914 -1.143509 -7.510185 -0.877024 -27.387723 -1.462524 1.185049 34.658363 1.074398 4.909246 -9.728881 -0.248200 -0.000000 -53.466300 8.917129 0.885810 -1.760476 10.611036 -2.937072 -50.092845 1.741669 -3.710885 45.465163 -2.151885 -7.372056 -11.907047 0.130300 0.000000 -29.724700
6.316787 17.176158 0.615586 -11.146831 85.614693 14.286515 -10.581306 0.340033 -1.258119 -7.256211 -0.370580 -26.404401 -1.470100 1.164920 33.704261 0.942245 4.305548 -8.408958 -0.109699 -0.000000 -55.548100 8.743249 0.924767 -1.372436 10.337102 -2.251408 -50.382504 1.998055 -3.361904 41.724902 -2.157127 -7.209878 -11.433844 0.004600 0.000000 -29.975200
6.534357 17.213179 0.659158 -11.172526 86.011792 14.375813 -10.657098 0.415257 -1.383267 -7.028891 0.081564 -25.385059 -1.476420 1.149509 32.766910 0.823433 3.736124 -7.098383 0.000000 0.000000 -57.719400 8.597019 0.967415 -0.977821 9.914316 -1.610956 -50.510772 2.245042 -2.967894 37.769855 -2.098019 -6.852001 -10.704243 -0.153900 0.000001 -30.659800
6.752920 17.244347 0.705162 -10.468202 86.455432 15.175339 -10.724862 0.490664 -1.512324 -6.828922 0.463872 -24.328257 -1.481473 1.137506 31.839713 0.718202 3.204011 -5.803751 0.083000 -0.000001 -59.910500 8.483256 1.018091 -0.578047 9.339665 -1.026636 -50.496995 2.473778 -2.531142 33.644094 -1.973104 -6.317540 -9.711925 -0.331700 0.000000 -31.753000
6.972867 17.269305 0.753239 -8.723375 86.942742 16.999390 -10.784257 0.566859 -1.638322 -6.654510 0.766135 -23.238907 -1.485464 1.127738 30.919519 0.626088 2.708934 -4.532906 0.141600 -0.000001 -62.061400 8.404887 1.080456 -0.175949 8.616538 -0.505999 -50.369365 2.674445 -2.059118 29.413049 -1.789768 -5.644673 -8.483028 -0.508900 -0.000000 -33.163600
7.194517 17.287889 0.802995 -5.351082 87.463430 20.439725 -10.834901 0.644993 -1.754417 -6.503237 0.984506 -22.126242 -1.489139 1.119740 30.007322 0.546093 2.248102 -3.292538 0.178300 -0.000000 -64.116300 8.362532 1.157664 0.223735 7.754583 -0.054453 -50.163736 2.837629 -1.564475 25.162425 -1.563330 -4.882341 -7.079607 -0.664000 0.000000 -34.741800
7.418200 17.300019 0.853880 0.812497 87.996794 26.666045 -10.877128 0.727649 -1.853178 -6.369456 1.120269 -21.006867 -1.494297 1.114640 29.110192 0.477009 1.816096 -2.092042 0.195300 0.000000 -66.009400 8.353279 1.251928 0.613781 6.776201 0.321210 -49.918527 2.957047 -1.062517 20.986865 -1.313912 -4.081559 -5.593025 -0.779300 -0.000000 -36.329200
7.643501 17.305704 0.905752 12.613805 88.485808 38.517310 -10.911291 0.821685 -1.934581 -6.261036 1.186463 -19.873258 -1.503795 1.115717 28.220856 0.419380 1.421267 -0.924540 0.196100 0.000000 -67.812400 8.370215 1.367444 0.982114 5.696389 0.622525 -49.660554 3.026515 -0.570330 16.999340 -1.061046 -3.283376 -4.136784 -0.844200 0.000000 -37.777600
7.870794 17.305112 0.957898 35.282225 88.837198 61.231358 -10.958337 0.937702 -1.991398 -6.166408 1.191629 -18.757049 -1.514331 1.126630 27.356264 0.373251 1.056693 0.196191 0.181700 0.000001 -69.430500 8.380794 1.505593 1.320962 4.560164 0.833694 -49.419328 3.055735 -0.097734 13.275221 -0.818567 -2.519409 -2.817029 -0.859700 -0.000000 -39.021500
8.099474 17.298358 1.010385 68.873017 88.852659 94.850904 -11.044864 1.057930 -2.031512 -6.081843 1.149837 -17.637117 -1.504054 1.131346 26.520658 0.336724 0.726587 1.287914 0.156000 0.000000 -70.963600 8.349619 1.650663 1.639330 3.380208 0.967969 -49.209095 3.060764 0.337011 9.877847 -0.604406 -1.834527 -1.746629 -0.835400 -0.000000 -39.941400
8.329493 17.285571 1.062939 96.497150 88.494502 122.480944 -11.135424 1.148971 -2.057420 -5.990403 1.049706 -16.501102 -1.473301 1.119373 25.742564 0.303769 0.415347 2.350225 0.120900 -0.000000 -72.402800 8.318229 1.778789 1.934454 2.210645 0.989586 -49.041888 3.045681 0.719627 6.823828 -0.435962 -1.258063 -0.999209 -0.784700 0.000000 -40.564500
8.560471 17.266730 1.115771 111.672259 87.947367 137.632730 -11.197323 1.232256 -2.073517 -5.893489 0.911504 -15.342090 -1.440752 1.106832 25.014549 0.276685 0.136171 3.384632 0.079600 0.000001 -73.799600 8.315321 1.906480 2.191311 1.096179 0.911562 -48.902174 3.004269 1.056287 4.132880 -0.315305 -0.799509 -0.604645 -0.722200 0.000000 -40.848600
8.792168 17.241719 1.169171 119.799728 87.338433 145.700333 -11.241500 1.321759 -2.082515 -5.795318 0.748270 -14.154733 -1.409177 1.101259 24.333075 0.257537 -0.100788 4.393568 0.035100 0.000000 -75.181500 8.325853 2.040221 2.402917 0.059692 0.745319 -48.766703 2.941529 1.352945 1.801687 -0.238482 -0.463408 -0.541185 -0.661800 -0.000000 -40.797001
9.024483 17.210225 1.223580 124.454987 86.711060 150.250094 -11.275239 1.419453 -2.087269 -5.701491 0.561394 -12.926900 -1.376958 1.103504 23.697205 0.246767 -0.288666 5.379917 -0.009001 -0.000000 -76.577599 8.341278 2.178282 2.564437 -0.880850 0.489133 -48.622600 2.864920 1.608053 -0.163300 -0.198941 -0.235728 -0.760899 -0.608500 0.000000 -40.390400
9.257452 17.171943 1.279347 127.333166 86.085053 152.974185 -11.301241 1.523614 -2.090253 -5.607670 0.354394 -11.654775 -1.342870 1.113295 23.109586 0.243781 -0.428329 6.340634 -0.050500 0.000001 -77.995900 8.359831 2.314528 2.679114 -1.723560 0.168785 -48.449107 2.776025 1.821162 -1.788270 -0.194051 -0.130734 -1.159925 -0.570700 -0.000000 -39.689400
9.491258 17.126417 1.336877 129.194649 85.467899 154.633383 -11.319080 1.633738 -2.091426 -5.515452 0.125179 -10.338844 -1.307005 1.130158 22.571192 0.247839 -0.520533 7.269835 -0.087000 0.000000 -79.447900 8.383648 2.444178 2.748403 -2.468019 -0.201251 -48.251812 2.679378 1.985707 -3.058380 -0.215976 -0.134377 -1.631320 -0.548500 -0.000000 -38.765500
9.726168 17.073315 1.396407 130.468115 84.868120 155.666243 -11.328662 1.748234 -2.089626 -5.419386 -0.124506 -8.993932 -1.269748 1.153223 22.086954 0.257587 -0.572761 8.155758 -0.117700 -0.000000 -80.932200 8.415397 2.559714 2.781205 -3.127863 -0.584449 -48.042403 2.576207 2.096510 -3.974184 -0.259891 -0.255277 -2.043295 -0.546600 -0.000000 -37.775800
